<?xml version="1.0" encoding="iso-8859-1"?>
<!-- Uploaded to: SVG Repo, www.svgrepo.com, Generator: SVG Repo Mixer Tools -->
<svg version="1.1" id="Layer_1" xmlns="http://www.w3.org/2000/svg" xmlns:xlink="http://www.w3.org/1999/xlink" 
	 viewBox="0 0 512 512" xml:space="preserve">
<path style="fill:#FFD782;" d="M372.718,0c-24.276,0-132.414,203.034-132.414,203.034l26.115,73.012l18.023-28.874l44.138-26.483
	C328.58,220.69,408.028,0,372.718,0z"/>
<path style="fill:#FFC36E;" d="M376.76,1.47c-7.409,16.48-23.446,54.097-48.18,122.116c-20.721,56.983-35.313,98.627-43.874,123.427
	l43.874-26.324C328.58,220.69,400.899,19.735,376.76,1.47z"/>
<path style="fill:#FFF0DC;" d="M213.821,432.556c-1.035,0-2.091-0.185-3.116-0.574c-4.561-1.72-6.862-6.81-5.142-11.375
	L345.665,77.578L222.08,426.84C220.748,430.375,217.386,432.556,213.821,432.556z"/>
<path style="fill:#707487;" d="M324.752,357.127c-6.073-2.869-12.83-4.023-19.546-4.023h-20.764c-4.875,0-8.828-3.953-8.828-8.828
	v-17.655h-70.621v17.655c0,4.875-3.953,8.828-8.828,8.828h-20.764c-6.717,0-13.473,1.154-19.546,4.023
	c-18.108,8.554-27.583,27.165-25.28,45.589l11.482,91.86c-4.31,0.584-7.686,4.127-7.686,8.597c0,4.875,3.953,8.828,8.828,8.828
	h194.207c4.875,0,8.828-3.953,8.828-8.828c0-4.47-3.375-8.013-7.686-8.597l11.482-91.86
	C352.335,384.291,342.86,365.681,324.752,357.127z"/>
<path style="fill:#959CB3;" d="M275.615,300.138h-70.621c-4.875,0-8.828,3.953-8.828,8.828v8.828c0,4.875,3.953,8.828,8.828,8.828
	h70.621c4.875,0,8.828-3.953,8.828-8.828v-8.828C284.442,304.09,280.49,300.138,275.615,300.138z"/>
<rect x="204.998" y="326.621" style="fill:#464655;" width="70.621" height="17.655"/>
<path style="fill:#959CB3;" d="M210.705,431.982c1.026,0.388,2.082,0.574,3.116,0.574c3.564,0,6.926-2.181,8.258-5.716
	l35.463-100.22h-13.593l-38.387,93.987C203.843,425.173,206.145,430.263,210.705,431.982z"/>
<polygon style="fill:#464655;" points="148.785,406.069 159.821,494.345 320.786,494.345 331.822,406.069 "/>
<polygon style="fill:#707487;" points="251.295,344.276 257.542,326.621 243.949,326.621 236.738,344.276 "/>
</svg>